<svg xmlns="http://www.w3.org/2000/svg" viewBox="0 0 26 26"><defs><style>.cls-1{fill:#fff;}</style></defs><g id="图层_2" data-name="图层 2"><g id="图层_1-2" data-name="图层 1"><g id="图层_2-2" data-name="图层 2"><path class="cls-1" d="M12.5,4V12.5h-5v2h1v-1h4V22a9,9,0,0,1,0-18ZM25,12.5h1A13,13,0,0,0,13.5,0V1A12,12,0,0,1,25,12.5ZM3.8,3.8A13,13,0,0,0,0,12.5H1A12,12,0,0,1,12.5,1V0A13,13,0,0,0,3.8,3.8ZM23.14,8.71a10.88,10.88,0,0,0-2-3.13l-.71.71A10,10,0,0,1,23,12.5h1A11,11,0,0,0,23.14,8.71Zm-17.56,11A10,10,0,0,1,3,13.5H2a11,11,0,0,0,.86,3.79,10.88,10.88,0,0,0,2,3.13Zm16.26,1.42.71.71A13,13,0,0,0,26,13.5H25A12,12,0,0,1,21.84,21.13Zm1.3-3.84A11,11,0,0,0,24,13.5H23a10,10,0,0,1-2.58,6.21l.71.71A10.88,10.88,0,0,0,23.14,17.29ZM1,13.5H0A13,13,0,0,0,12.5,26V25A12,12,0,0,1,1,13.5ZM13.5,25v1a13,13,0,0,0,8.34-3.45l-.71-.71A12,12,0,0,1,13.5,25ZM5.58,21.13a10.88,10.88,0,0,0,3.13,2A11,11,0,0,0,12.5,24V23a10,10,0,0,1-6.21-2.58ZM13.5,23v1a11,11,0,0,0,3.79-.86,10.88,10.88,0,0,0,3.13-2l-.71-.71A10,10,0,0,1,13.5,23ZM5.22,5.22A10.72,10.72,0,0,0,2.86,8.71,11,11,0,0,0,2,12.5H3A10,10,0,0,1,12.5,3V2a11,11,0,0,0-3.79.86A10.72,10.72,0,0,0,5.22,5.22Zm15.2-.35a10.88,10.88,0,0,0-3.13-2A11,11,0,0,0,13.5,2V3a10,10,0,0,1,6.21,2.58ZM17.5,14.5h1v5.62a9,9,0,0,0,0-14.24V12.5h-1V5.2A8.93,8.93,0,0,0,13.5,4V22a8.93,8.93,0,0,0,4-1.19Z"/></g></g></g></svg>